<svg xmlns="http://www.w3.org/2000/svg" width="90" height="90" viewBox="0 0 90 90">
  <path id="Subtraction_1" data-name="Subtraction 1" d="M-3935,89.5a44.222,44.222,0,0,1-17.321-3.5,44.35,44.35,0,0,1-14.145-9.537A44.361,44.361,0,0,1-3976,62.321,44.219,44.219,0,0,1-3979.5,45a44.216,44.216,0,0,1,3.5-17.321,44.361,44.361,0,0,1,9.537-14.145A44.345,44.345,0,0,1-3952.322,4,44.222,44.222,0,0,1-3935,.5,44.223,44.223,0,0,1-3917.678,4a44.355,44.355,0,0,1,14.145,9.537A44.357,44.357,0,0,1-3894,27.679,44.22,44.22,0,0,1-3890.5,45a44.223,44.223,0,0,1-3.5,17.322,44.357,44.357,0,0,1-9.537,14.145A44.355,44.355,0,0,1-3917.678,86,44.223,44.223,0,0,1-3935,89.5Zm-10.463-38.6a3.616,3.616,0,0,0-3.613,3.613V55.9c0,2.964,1.756,5.632,4.819,7.321a20.482,20.482,0,0,0,9.711,2.214,20.484,20.484,0,0,0,9.711-2.214,8.739,8.739,0,0,0,4.6-5.959h.218V54.516a3.618,3.618,0,0,0-3.615-3.613Zm10.917-21.8a9.092,9.092,0,0,0-9.082,9.082,9.092,9.092,0,0,0,9.082,9.081,9.092,9.092,0,0,0,9.082-9.081A9.092,9.092,0,0,0-3934.546,29.107Zm0,33.6a18.02,18.02,0,0,1-8.4-1.873,7.37,7.37,0,0,1-2.525-2.106,4.712,4.712,0,0,1-.885-2.832V54.516a.869.869,0,0,1,.888-.889h21.835a.871.871,0,0,1,.891.889v.02l0,1.362a4.709,4.709,0,0,1-.884,2.832,7.385,7.385,0,0,1-2.526,2.106A18.014,18.014,0,0,1-3934.546,62.709Zm0-18.163a6.316,6.316,0,0,1-4.5-1.856,6.319,6.319,0,0,1-1.856-4.5,6.319,6.319,0,0,1,1.856-4.5,6.317,6.317,0,0,1,4.5-1.856,6.321,6.321,0,0,1,4.5,1.856,6.32,6.32,0,0,1,1.856,4.5,6.32,6.32,0,0,1-1.856,4.5A6.32,6.32,0,0,1-3934.546,44.546Z" transform="translate(3980 0)" fill="#fff" stroke="#707070" stroke-width="1"/>
</svg>
