<svg id="Add_tasks-bro_1_" data-name="Add tasks-bro (1)" xmlns="http://www.w3.org/2000/svg" width="472.852" height="448.134" viewBox="0 0 472.852 448.134">
  <g id="freepik--background-simple--inject-93">
    <path id="Path_1" data-name="Path 1" d="M462.77,357.68c34.45-81.57,38.81-196.85-20.56-268.45-32.75-39.5-84.28-52.63-133.47-55.56C264.65,31,217.47,32.09,177.41,53,109.53,88.31,107.85,172.39,57,222,16,262-1,319,34,394s100,92,164,68,93-29,170-17c35.39,5.52,61.07-21,76.6-49.65C451.25,383.08,457.36,370.5,462.77,357.68Z" transform="translate(-15.086 -32.619)" fill="#aa56f9"/>
    <path id="Path_2" data-name="Path 2" d="M462.77,357.68c34.45-81.57,38.81-196.85-20.56-268.45-32.75-39.5-84.28-52.63-133.47-55.56C264.65,31,217.47,32.09,177.41,53,109.53,88.31,107.85,172.39,57,222c-26.978,26.32-43.565,60-41.776,101.512C16.142,344.805,22.03,368.35,34,394c35,75,100,92,164,68s93-29,170-17c35.39,5.52,61.07-21,76.6-49.65C451.25,383.08,457.36,370.5,462.77,357.68Z" transform="translate(-15.086 -32.619)" fill="#aa56f9" opacity="0.7"/>
  </g>
  <g id="freepik--Graphics--inject-93" transform="translate(19.042 2.571)">
    <g id="Group_1" data-name="Group 1" transform="translate(50.392)" opacity="0.2">
      <path id="Path_3" data-name="Path 3" d="M115.11,35.19H159.6V94.04H103.89" transform="translate(-84.52 -35.19)" fill="none" stroke="#000" stroke-linecap="round" stroke-linejoin="round" stroke-width="1"/>
      <path id="Path_4" data-name="Path 4" d="M98.07,94.04H84.52V35.19h24.77" transform="translate(-84.52 -35.19)" fill="none" stroke="#000" stroke-linecap="round" stroke-linejoin="round" stroke-width="1"/>
      <rect id="Rectangle_2" data-name="Rectangle 2" width="8.24" height="8.24" transform="translate(5.67 17.08)" fill="none" stroke="#000" stroke-linecap="round" stroke-linejoin="round" stroke-width="1"/>
      <rect id="Rectangle_3" data-name="Rectangle 3" width="8.24" height="8.24" transform="translate(16.77 17.08)" fill="none" stroke="#000" stroke-linecap="round" stroke-linejoin="round" stroke-width="1"/>
      <rect id="Rectangle_4" data-name="Rectangle 4" width="8.24" height="8.24" transform="translate(27.87 17.08)" fill="none" stroke="#000" stroke-linecap="round" stroke-linejoin="round" stroke-width="1"/>
      <rect id="Rectangle_5" data-name="Rectangle 5" width="8.24" height="8.24" transform="translate(38.97 17.08)" fill="none" stroke="#000" stroke-linecap="round" stroke-linejoin="round" stroke-width="1"/>
      <rect id="Rectangle_6" data-name="Rectangle 6" width="8.24" height="8.24" transform="translate(50.08 17.08)" fill="none" stroke="#000" stroke-linecap="round" stroke-linejoin="round" stroke-width="1"/>
      <rect id="Rectangle_7" data-name="Rectangle 7" width="8.24" height="8.24" transform="translate(61.18 17.08)" fill="none" stroke="#000" stroke-linecap="round" stroke-linejoin="round" stroke-width="1"/>
      <rect id="Rectangle_8" data-name="Rectangle 8" width="8.24" height="8.24" transform="translate(5.67 28.54)" fill="none" stroke="#000" stroke-linecap="round" stroke-linejoin="round" stroke-width="1"/>
      <rect id="Rectangle_9" data-name="Rectangle 9" width="8.24" height="8.24" transform="translate(16.77 28.54)" fill="none" stroke="#000" stroke-linecap="round" stroke-linejoin="round" stroke-width="1"/>
      <rect id="Rectangle_10" data-name="Rectangle 10" width="8.24" height="8.24" transform="translate(27.87 28.54)" fill="none" stroke="#000" stroke-linecap="round" stroke-linejoin="round" stroke-width="1"/>
      <rect id="Rectangle_11" data-name="Rectangle 11" width="8.24" height="8.24" transform="translate(38.97 28.54)" fill="none" stroke="#000" stroke-linecap="round" stroke-linejoin="round" stroke-width="1"/>
      <rect id="Rectangle_12" data-name="Rectangle 12" width="8.24" height="8.24" transform="translate(50.08 28.54)" fill="none" stroke="#000" stroke-linecap="round" stroke-linejoin="round" stroke-width="1"/>
      <rect id="Rectangle_13" data-name="Rectangle 13" width="8.24" height="8.24" transform="translate(61.18 28.54)" fill="none" stroke="#000" stroke-linecap="round" stroke-linejoin="round" stroke-width="1"/>
      <rect id="Rectangle_14" data-name="Rectangle 14" width="8.24" height="8.24" transform="translate(5.67 40)" fill="none" stroke="#000" stroke-linecap="round" stroke-linejoin="round" stroke-width="1"/>
      <rect id="Rectangle_15" data-name="Rectangle 15" width="8.24" height="8.24" transform="translate(16.77 40)" fill="none" stroke="#000" stroke-linecap="round" stroke-linejoin="round" stroke-width="1"/>
      <rect id="Rectangle_16" data-name="Rectangle 16" width="8.24" height="8.24" transform="translate(27.87 40)" fill="none" stroke="#000" stroke-linecap="round" stroke-linejoin="round" stroke-width="1"/>
      <rect id="Rectangle_17" data-name="Rectangle 17" width="8.24" height="8.24" transform="translate(38.97 40)" fill="none" stroke="#000" stroke-linecap="round" stroke-linejoin="round" stroke-width="1"/>
      <rect id="Rectangle_18" data-name="Rectangle 18" width="8.24" height="8.24" transform="translate(50.08 40)" fill="none" stroke="#000" stroke-linecap="round" stroke-linejoin="round" stroke-width="1"/>
      <rect id="Rectangle_19" data-name="Rectangle 19" width="8.24" height="8.24" transform="translate(61.18 40)" fill="none" stroke="#000" stroke-linecap="round" stroke-linejoin="round" stroke-width="1"/>
      <rect id="Rectangle_20" data-name="Rectangle 20" width="63.75" height="2.86" transform="translate(5.98 8.12)" fill="none" stroke="#000" stroke-linecap="round" stroke-linejoin="round" stroke-width="1"/>
    </g>
    <g id="Group_2" data-name="Group 2" transform="translate(361.062 67.26)" opacity="0.2">
      <path id="Path_5" data-name="Path 5" d="M442.21,102.45h28.07v58.86h-7.29" transform="translate(-395.19 -102.45)" fill="none" stroke="#000" stroke-linecap="round" stroke-linejoin="round" stroke-width="1"/>
      <path id="Path_6" data-name="Path 6" d="M458,161.31H395.19V102.45h40.37" transform="translate(-395.19 -102.45)" fill="none" stroke="#000" stroke-linecap="round" stroke-linejoin="round" stroke-width="1"/>
      <rect id="Rectangle_21" data-name="Rectangle 21" width="8.24" height="8.24" transform="translate(5.67 17.08)" fill="none" stroke="#000" stroke-linecap="round" stroke-linejoin="round" stroke-width="1"/>
      <rect id="Rectangle_22" data-name="Rectangle 22" width="8.24" height="8.24" transform="translate(16.78 17.08)" fill="none" stroke="#000" stroke-linecap="round" stroke-linejoin="round" stroke-width="1"/>
      <rect id="Rectangle_23" data-name="Rectangle 23" width="8.24" height="8.24" transform="translate(27.88 17.08)" fill="none" stroke="#000" stroke-linecap="round" stroke-linejoin="round" stroke-width="1"/>
      <rect id="Rectangle_24" data-name="Rectangle 24" width="8.24" height="8.24" transform="translate(38.98 17.08)" fill="none" stroke="#000" stroke-linecap="round" stroke-linejoin="round" stroke-width="1"/>
      <rect id="Rectangle_25" data-name="Rectangle 25" width="8.24" height="8.24" transform="translate(50.08 17.08)" fill="none" stroke="#000" stroke-linecap="round" stroke-linejoin="round" stroke-width="1"/>
      <rect id="Rectangle_26" data-name="Rectangle 26" width="8.24" height="8.24" transform="translate(61.18 17.08)" fill="none" stroke="#000" stroke-linecap="round" stroke-linejoin="round" stroke-width="1"/>
      <rect id="Rectangle_27" data-name="Rectangle 27" width="8.24" height="8.24" transform="translate(5.67 28.54)" fill="none" stroke="#000" stroke-linecap="round" stroke-linejoin="round" stroke-width="1"/>
      <rect id="Rectangle_28" data-name="Rectangle 28" width="8.24" height="8.24" transform="translate(16.78 28.54)" fill="none" stroke="#000" stroke-linecap="round" stroke-linejoin="round" stroke-width="1"/>
      <rect id="Rectangle_29" data-name="Rectangle 29" width="8.24" height="8.24" transform="translate(27.88 28.54)" fill="none" stroke="#000" stroke-linecap="round" stroke-linejoin="round" stroke-width="1"/>
      <rect id="Rectangle_30" data-name="Rectangle 30" width="8.24" height="8.24" transform="translate(38.98 28.54)" fill="none" stroke="#000" stroke-linecap="round" stroke-linejoin="round" stroke-width="1"/>
      <rect id="Rectangle_31" data-name="Rectangle 31" width="8.24" height="8.24" transform="translate(50.08 28.54)" fill="none" stroke="#000" stroke-linecap="round" stroke-linejoin="round" stroke-width="1"/>
      <rect id="Rectangle_32" data-name="Rectangle 32" width="8.24" height="8.24" transform="translate(61.18 28.54)" fill="none" stroke="#000" stroke-linecap="round" stroke-linejoin="round" stroke-width="1"/>
      <rect id="Rectangle_33" data-name="Rectangle 33" width="8.24" height="8.24" transform="translate(5.67 40)" fill="none" stroke="#000" stroke-linecap="round" stroke-linejoin="round" stroke-width="1"/>
      <rect id="Rectangle_34" data-name="Rectangle 34" width="8.24" height="8.24" transform="translate(16.78 40)" fill="none" stroke="#000" stroke-linecap="round" stroke-linejoin="round" stroke-width="1"/>
      <rect id="Rectangle_35" data-name="Rectangle 35" width="8.24" height="8.24" transform="translate(27.88 40)" fill="none" stroke="#000" stroke-linecap="round" stroke-linejoin="round" stroke-width="1"/>
      <rect id="Rectangle_36" data-name="Rectangle 36" width="8.24" height="8.24" transform="translate(38.98 40)" fill="none" stroke="#000" stroke-linecap="round" stroke-linejoin="round" stroke-width="1"/>
      <rect id="Rectangle_37" data-name="Rectangle 37" width="8.24" height="8.24" transform="translate(50.08 40)" fill="none" stroke="#000" stroke-linecap="round" stroke-linejoin="round" stroke-width="1"/>
      <rect id="Rectangle_38" data-name="Rectangle 38" width="8.24" height="8.24" transform="translate(61.18 40)" fill="none" stroke="#000" stroke-linecap="round" stroke-linejoin="round" stroke-width="1"/>
      <rect id="Rectangle_39" data-name="Rectangle 39" width="63.75" height="2.87" transform="translate(5.99 8.13)" fill="none" stroke="#000" stroke-linecap="round" stroke-linejoin="round" stroke-width="1"/>
    </g>
    <g id="Group_3" data-name="Group 3" transform="translate(13.272 126.81)" opacity="0.2">
      <path id="Path_7" data-name="Path 7" d="M47.4,196.57V165.86A3.82,3.82,0,0,1,51.22,162h48a3.83,3.83,0,0,1,3.83,3.83V210H47.4v-6.78" transform="translate(-47.4 -162)" fill="none" stroke="#000" stroke-linecap="round" stroke-linejoin="round" stroke-width="1"/>
      <line id="Line_1" data-name="Line 1" x2="54.23" transform="translate(0.69 10.46)" fill="none" stroke="#000" stroke-linecap="round" stroke-linejoin="round" stroke-width="1"/>
      <path id="Path_8" data-name="Path 8" d="M61.08,181.5H52.96v6.25H97.45V181.5H69.39" transform="translate(-47.4 -162)" fill="none" stroke="#000" stroke-linecap="round" stroke-linejoin="round" stroke-width="1"/>
      <rect id="Rectangle_40" data-name="Rectangle 40" width="44.49" height="6.26" transform="translate(5.56 32.71)" fill="none" stroke="#000" stroke-linecap="round" stroke-linejoin="round" stroke-width="1"/>
    </g>
    <g id="Group_4" data-name="Group 4" transform="translate(239.272 384.81)" opacity="0.2">
      <path id="Path_9" data-name="Path 9" d="M277.22,420h48a3.82,3.82,0,0,1,3.82,3.82V468H273.4V423.86a3.82,3.82,0,0,1,3.82-3.86Z" transform="translate(-273.4 -420)" fill="none" stroke="#000" stroke-linecap="round" stroke-linejoin="round" stroke-width="1"/>
      <line id="Line_2" data-name="Line 2" x2="54.23" transform="translate(0.69 10.46)" fill="none" stroke="#000" stroke-linecap="round" stroke-linejoin="round" stroke-width="1"/>
      <rect id="Rectangle_41" data-name="Rectangle 41" width="44.49" height="6.26" transform="translate(5.56 19.5)" fill="none" stroke="#000" stroke-linecap="round" stroke-linejoin="round" stroke-width="1"/>
      <rect id="Rectangle_42" data-name="Rectangle 42" width="44.49" height="6.26" transform="translate(5.56 32.71)" fill="none" stroke="#000" stroke-linecap="round" stroke-linejoin="round" stroke-width="1"/>
    </g>
    <g id="Group_5" data-name="Group 5" transform="translate(201.386 1.954)" opacity="0.2">
      <path id="Path_10" data-name="Path 10" d="M288,45.71a31.066,31.066,0,1,0-42.84,45" transform="translate(-235.514 -37.144)" fill="none" stroke="#000" stroke-linecap="round" stroke-linejoin="round" stroke-width="1"/>
      <path id="Path_11" data-name="Path 11" d="M248.66,93.73a31.06,31.06,0,0,0,41.79-45.49" transform="translate(-235.514 -37.144)" fill="none" stroke="#000" stroke-linecap="round" stroke-linejoin="round" stroke-width="1"/>
      <path id="Path_12" data-name="Path 12" d="M281.36,68.77H267.15V92.9" transform="translate(-235.514 -37.144)" fill="none" stroke="#000" stroke-linecap="round" stroke-linejoin="round" stroke-width="1"/>
    </g>
    <g id="Group_6" data-name="Group 6" transform="translate(0 55.02)" opacity="0.2">
      <path id="Path_13" data-name="Path 13" d="M47.31,90.26a15.62,15.62,0,1,0,7.88,30.07" transform="translate(-34.128 -90.21)" fill="none" stroke="#000" stroke-linecap="round" stroke-linejoin="round" stroke-width="1"/>
      <path id="Path_14" data-name="Path 14" d="M60.27,117.21a15.63,15.63,0,0,0-8.65-27" transform="translate(-34.128 -90.21)" fill="none" stroke="#000" stroke-linecap="round" stroke-linejoin="round" stroke-width="1"/>
      <line id="Line_3" data-name="Line 3" y2="15.91" transform="translate(15.582 7.53)" fill="none" stroke="#000" stroke-miterlimit="10" stroke-width="1"/>
      <line id="Line_4" data-name="Line 4" x1="15.92" transform="translate(7.622 15.49)" fill="none" stroke="#000" stroke-miterlimit="10" stroke-width="1"/>
    </g>
    <g id="Group_7" data-name="Group 7" transform="translate(420.282 176.6)" opacity="0.2">
      <circle id="Ellipse_1" data-name="Ellipse 1" cx="15.62" cy="15.62" r="15.62" fill="none" stroke="#000" stroke-linecap="round" stroke-linejoin="round" stroke-width="1"/>
      <line id="Line_5" data-name="Line 5" y2="15.92" transform="translate(15.62 7.66)" fill="none" stroke="#000" stroke-miterlimit="10" stroke-width="1"/>
      <line id="Line_6" data-name="Line 6" x1="15.91" transform="translate(7.66 15.62)" fill="none" stroke="#000" stroke-miterlimit="10" stroke-width="1"/>
    </g>
  </g>
  <g id="freepik--task-panel--inject-93" transform="translate(66.914 5.54)">
    <path id="Path_15" data-name="Path 15" d="M441,436H82l.42-295.53a10.73,10.73,0,0,1,10.73-10.73H430.69a10.72,10.72,0,0,1,10.73,10.73Z" transform="translate(-82 -38.159)" fill="#fff" stroke="#263238" stroke-linecap="round" stroke-linejoin="round" stroke-width="1"/>
    <rect id="Rectangle_43" data-name="Rectangle 43" width="50.97" height="10.49" transform="translate(47.75 117.841)" fill="none" stroke="#263238" stroke-linecap="round" stroke-linejoin="round" stroke-width="1"/>
    <line id="Line_7" data-name="Line 7" x2="92.95" transform="translate(253.24 132.131)" fill="none" stroke="#263238" stroke-linecap="round" stroke-linejoin="round" stroke-width="1"/>
    <line id="Line_8" data-name="Line 8" x2="227.47" transform="translate(20.35 132.131)" fill="none" stroke="#263238" stroke-linecap="round" stroke-linejoin="round" stroke-width="1"/>
    <path id="Path_16" data-name="Path 16" d="M430.69,129.74H93.15a10.73,10.73,0,0,0-10.73,10.73v8.17h359v-8.17a10.72,10.72,0,0,0-10.73-10.73Z" transform="translate(-82 -38.159)" fill="#263238" stroke="#263238" stroke-linecap="round" stroke-linejoin="round" stroke-width="1"/>
    <path id="Path_17" data-name="Path 17" d="M102,140.23a3.24,3.24,0,1,0-3.24,3.24A3.24,3.24,0,0,0,102,140.23Z" transform="translate(-82 -38.159)" fill="#fff" stroke="#263238" stroke-linecap="round" stroke-linejoin="round" stroke-width="1"/>
    <path id="Path_18" data-name="Path 18" d="M114.93,140.23a3.24,3.24,0,1,0-3.24,3.24,3.24,3.24,0,0,0,3.24-3.24Z" transform="translate(-82 -38.159)" fill="#fff" stroke="#263238" stroke-linecap="round" stroke-linejoin="round" stroke-width="1"/>
    <circle id="Ellipse_2" data-name="Ellipse 2" cx="3.24" cy="3.24" r="3.24" transform="translate(39.4 98.831)" fill="#fff" stroke="#263238" stroke-linecap="round" stroke-linejoin="round" stroke-width="1"/>
    <line id="Line_9" data-name="Line 9" x2="15.36" transform="translate(21.14 118.461)" fill="none" stroke="#263238" stroke-linecap="round" stroke-linejoin="round" stroke-width="1"/>
    <line id="Line_10" data-name="Line 10" x2="15.36" transform="translate(21.14 122.591)" fill="none" stroke="#263238" stroke-linecap="round" stroke-linejoin="round" stroke-width="1"/>
    <line id="Line_11" data-name="Line 11" x2="15.36" transform="translate(21.14 126.711)" fill="none" stroke="#263238" stroke-linecap="round" stroke-linejoin="round" stroke-width="1"/>
    <path id="Path_19" data-name="Path 19" d="M106,193.06V179.82h-2.71v-1.49h7.07v1.49h-2.72v13.24Z" transform="translate(-82 -38.159)" fill="#263238"/>
    <path id="Path_20" data-name="Path 20" d="M112.34,190.09l-.57,3h-1.52l2.82-14.73h2.38l2.82,14.73h-1.64l-.57-3Zm.21-1.41h3.28l-1.66-8.5Z" transform="translate(-82 -38.159)" fill="#263238"/>
    <path id="Path_21" data-name="Path 21" d="M125.93,181.86v.4h-1.56v-.48c0-1.33-.5-2.11-1.68-2.11s-1.68.78-1.68,2.09c0,3.3,4.94,3.62,4.94,7.76,0,2.23-1.07,3.68-3.32,3.68s-3.31-1.45-3.31-3.68v-.84h1.54v.93c0,1.32.55,2.1,1.73,2.1s1.72-.78,1.72-2.1c0-3.29-4.92-3.6-4.92-7.75,0-2.27,1-3.68,3.26-3.68S125.93,179.63,125.93,181.86Z" transform="translate(-82 -38.159)" fill="#263238"/>
    <path id="Path_22" data-name="Path 22" d="M129.89,186.66l-.87,1.45v4.95h-1.64V178.33H129v7.11l3.92-7.11h1.66l-3.7,6.67,3.85,8H133Z" transform="translate(-82 -38.159)" fill="#263238"/>
    <path id="Path_23" data-name="Path 23" d="M142.26,181.86v.4H140.7v-.48c0-1.33-.5-2.11-1.68-2.11s-1.68.78-1.68,2.09c0,3.3,4.94,3.62,4.94,7.76,0,2.23-1.07,3.68-3.32,3.68s-3.31-1.45-3.31-3.68v-.84h1.54v.93c0,1.32.55,2.1,1.73,2.1s1.72-.78,1.72-2.1c0-3.29-4.92-3.6-4.92-7.75,0-2.27,1.05-3.68,3.26-3.68S142.26,179.63,142.26,181.86Z" transform="translate(-82 -38.159)" fill="#263238"/>
    <rect id="Rectangle_44" data-name="Rectangle 44" width="225.91" height="60.36" transform="translate(20.6 237.591)" fill="#fff" stroke="#263238" stroke-linecap="round" stroke-linejoin="round" stroke-width="1"/>
    <path id="Path_24" data-name="Path 24" d="M276.68,291.5c1,0,1.41.58,1.41,1.53v.76c0,1-.47,1.52-1.46,1.52H276v2.49h-.7v-6.3Zm-.05,3.18c.52,0,.77-.24.77-.84V293c0-.58-.21-.87-.72-.87H276v2.55Z" transform="translate(-82 -38.159)" fill="#263238"/>
    <path id="Path_25" data-name="Path 25" d="M280,291.5c1,0,1.41.5,1.41,1.44v.51a1.19,1.19,0,0,1-.78,1.3c.57.17.79.63.79,1.31v1a1.69,1.69,0,0,0,.12.76h-.71a1.72,1.72,0,0,1-.11-.77v-1c0-.71-.34-.93-.92-.93h-.5v2.69h-.7v-6.3Zm-.17,3c.55,0,.89-.18.89-.87V293c0-.57-.21-.87-.73-.87h-.69v2.34Z" transform="translate(-82 -38.159)" fill="#263238"/>
    <path id="Path_26" data-name="Path 26" d="M282.13,293c0-1,.48-1.59,1.44-1.59s1.45.62,1.45,1.59v3.26a1.45,1.45,0,1,1-2.89,0Zm.7,3.29c0,.58.24.91.74.91s.75-.33.75-.91V293c0-.57-.23-.91-.75-.91s-.74.34-.74.91Z" transform="translate(-82 -38.159)" fill="#263238"/>
    <path id="Path_27" data-name="Path 27" d="M288.47,293v.54h-.67V293c0-.57-.22-.91-.74-.91s-.73.34-.73.91v3.33c0,.57.23.91.73.91s.74-.34.74-.91v-1.26h-.65v-.63h1.32v1.86c0,1-.45,1.58-1.42,1.58s-1.42-.63-1.42-1.58V293c0-1,.45-1.59,1.42-1.59S288.47,292.06,288.47,293Z" transform="translate(-82 -38.159)" fill="#263238"/>
    <path id="Path_28" data-name="Path 28" d="M290.54,291.5c1,0,1.4.5,1.4,1.44v.51a1.19,1.19,0,0,1-.78,1.3c.58.17.79.63.79,1.31v1a1.57,1.57,0,0,0,.13.76h-.71a1.689,1.689,0,0,1-.12-.77v-1c0-.71-.33-.93-.92-.93h-.49v2.69h-.71v-6.3Zm-.18,3c.56,0,.89-.18.89-.87V293c0-.57-.21-.87-.73-.87h-.68v2.34Z" transform="translate(-82 -38.159)" fill="#263238"/>
    <path id="Path_29" data-name="Path 29" d="M294.92,294.29v.63h-1.54v2.24h1.89v.64h-2.59v-6.3h2.59v.63h-1.89v2.16Z" transform="translate(-82 -38.159)" fill="#263238"/>
    <path id="Path_30" data-name="Path 30" d="M298.65,293v.17H298V293c0-.57-.21-.9-.72-.9s-.72.33-.72.89c0,1.42,2.12,1.55,2.12,3.32,0,1-.46,1.58-1.43,1.58s-1.41-.62-1.41-1.58v-.36h.66v.4c0,.57.23.9.74.9s.73-.33.73-.9c0-1.4-2.1-1.54-2.1-3.31,0-1,.45-1.58,1.39-1.58S298.65,292.05,298.65,293Z" transform="translate(-82 -38.159)" fill="#263238"/>
    <path id="Path_31" data-name="Path 31" d="M302,293v.17h-.67V293c0-.57-.22-.9-.72-.9s-.72.33-.72.89c0,1.42,2.11,1.55,2.11,3.32,0,1-.45,1.58-1.42,1.58s-1.41-.62-1.41-1.58v-.36h.66v.4c0,.57.23.9.73.9s.74-.33.74-.9c0-1.4-2.1-1.54-2.1-3.31,0-1,.45-1.58,1.39-1.58S302,292.05,302,293Z" transform="translate(-82 -38.159)" fill="#263238"/>
    <path id="Path_32" data-name="Path 32" d="M231.53,291.5c1,0,1.43.59,1.43,1.56v3.18c0,1-.45,1.56-1.43,1.56h-1.48v-6.3Zm0,5.66c.5,0,.75-.32.75-.89V293c0-.58-.25-.9-.76-.9h-.76v5Z" transform="translate(-82 -38.159)" fill="#263238"/>
    <path id="Path_33" data-name="Path 33" d="M235.86,294.29v.63h-1.54v2.24h1.89v.64h-2.59v-6.3h2.59v.63h-1.89v2.16Z" transform="translate(-82 -38.159)" fill="#263238"/>
    <path id="Path_34" data-name="Path 34" d="M237.57,296.53l-.25,1.27h-.64l1.2-6.3h1l1.21,6.3h-.71l-.24-1.27Zm.09-.61h1.4l-.71-3.63Z" transform="translate(-82 -38.159)" fill="#263238"/>
    <path id="Path_35" data-name="Path 35" d="M242.13,291.5c1,0,1.43.59,1.43,1.56v3.18c0,1-.45,1.56-1.43,1.56h-1.48v-6.3Zm0,5.66c.51,0,.75-.32.75-.89V293c0-.58-.24-.9-.76-.9h-.75v5Z" transform="translate(-82 -38.159)" fill="#263238"/>
    <path id="Path_36" data-name="Path 36" d="M244.22,297.8v-6.3h.7v5.66h1.8v.64Z" transform="translate(-82 -38.159)" fill="#263238"/>
    <path id="Path_37" data-name="Path 37" d="M248,291.5v6.3h-.7v-6.3Z" transform="translate(-82 -38.159)" fill="#263238"/>
    <path id="Path_38" data-name="Path 38" d="M249.29,297.8h-.63v-6.3h.89l1.46,4.55V291.5h.62v6.3h-.72l-1.62-5.1Z" transform="translate(-82 -38.159)" fill="#263238"/>
    <path id="Path_39" data-name="Path 39" d="M254.6,294.29v.63h-1.54v2.24H255v.64h-2.6v-6.3H255v.63h-1.89v2.16Z" transform="translate(-82 -38.159)" fill="#263238"/>
    <line id="Line_12" data-name="Line 12" x2="13.16" transform="translate(108.11 260.541)" fill="none" stroke="#263238" stroke-linecap="round" stroke-linejoin="round" stroke-width="1"/>
    <line id="Line_13" data-name="Line 13" x2="34.73" transform="translate(68.65 260.541)" fill="none" stroke="#263238" stroke-linecap="round" stroke-linejoin="round" stroke-width="1"/>
    <line id="Line_14" data-name="Line 14" x2="31.6" transform="translate(31.79 260.541)" fill="none" stroke="#263238" stroke-linecap="round" stroke-linejoin="round" stroke-width="1"/>
    <line id="Line_15" data-name="Line 15" x2="10.05" transform="translate(88.65 275.501)" fill="none" stroke="#263238" stroke-linecap="round" stroke-linejoin="round" stroke-width="1"/>
    <line id="Line_16" data-name="Line 16" x2="17.37" transform="translate(62.86 275.501)" fill="none" stroke="#263238" stroke-linecap="round" stroke-linejoin="round" stroke-width="1"/>
    <line id="Line_17" data-name="Line 17" x2="7.36" transform="translate(50.24 275.501)" fill="none" stroke="#263238" stroke-linecap="round" stroke-linejoin="round" stroke-width="1"/>
    <line id="Line_18" data-name="Line 18" x2="14.24" transform="translate(31.79 275.501)" fill="none" stroke="#263238" stroke-linecap="round" stroke-linejoin="round" stroke-width="1"/>
    <path id="Path_40" data-name="Path 40" d="M320.14,310.87a4.73,4.73,0,0,1-4.72,4.72H265.87a4.725,4.725,0,1,1,0-9.45h49.55a4.72,4.72,0,0,1,4.72,4.73Z" transform="translate(-82 -38.159)" fill="#fff" stroke="#263238" stroke-linecap="round" stroke-linejoin="round" stroke-width="1"/>
    <path id="Path_41" data-name="Path 41" d="M305.37,306.14v9.45h-39.5a4.725,4.725,0,1,1,0-9.45Z" transform="translate(-82 -38.159)" fill="#9d03c2" stroke="#263238" stroke-linecap="round" stroke-linejoin="round" stroke-width="1"/>
    <rect id="Rectangle_45" data-name="Rectangle 45" width="29" height="9.45" rx="4.72" transform="translate(145.48 267.981)" fill="#fff" stroke="#263238" stroke-linecap="round" stroke-linejoin="round" stroke-width="1"/>
    <rect id="Rectangle_46" data-name="Rectangle 46" width="225.91" height="60.36" transform="translate(20.6 314.601)" fill="#fff" stroke="#263238" stroke-linecap="round" stroke-linejoin="round" stroke-width="1"/>
    <path id="Path_42" data-name="Path 42" d="M276.68,369.78c1,0,1.41.58,1.41,1.54v.75c0,1-.47,1.53-1.46,1.53H276v2.48h-.7v-6.3Zm-.05,3.19c.52,0,.77-.25.77-.85v-.84c0-.57-.21-.86-.72-.86H276V373Z" transform="translate(-82 -38.159)" fill="#263238"/>
    <path id="Path_43" data-name="Path 43" d="M280,369.78c1,0,1.41.5,1.41,1.44v.51c0,.7-.24,1.13-.78,1.3.57.17.79.64.79,1.31v1a1.67,1.67,0,0,0,.12.76h-.71a1.67,1.67,0,0,1-.11-.76v-1c0-.72-.34-.94-.92-.94h-.5v2.69h-.7v-6.3Zm-.17,3c.55,0,.89-.18.89-.86v-.61c0-.56-.21-.86-.73-.86h-.69v2.33Z" transform="translate(-82 -38.159)" fill="#263238"/>
    <path id="Path_44" data-name="Path 44" d="M282.13,371.3c0-1,.48-1.58,1.44-1.58a1.384,1.384,0,0,1,1.45,1.58v3.26a1.45,1.45,0,1,1-2.89,0Zm.7,3.3c0,.57.24.9.74.9s.75-.33.75-.9v-3.34c0-.56-.23-.9-.75-.9s-.74.34-.74.9Z" transform="translate(-82 -38.159)" fill="#263238"/>
    <path id="Path_45" data-name="Path 45" d="M288.47,371.3v.54h-.67v-.58c0-.56-.22-.9-.74-.9s-.73.34-.73.9v3.34c0,.56.23.9.73.9s.74-.34.74-.9v-1.26h-.65v-.63h1.32v1.85c0,.95-.45,1.58-1.42,1.58s-1.42-.63-1.42-1.58V371.3c0-.95.45-1.58,1.42-1.58S288.47,370.35,288.47,371.3Z" transform="translate(-82 -38.159)" fill="#263238"/>
    <path id="Path_46" data-name="Path 46" d="M290.54,369.78c1,0,1.4.5,1.4,1.44v.51c0,.7-.24,1.13-.78,1.3.58.17.79.64.79,1.31v1a1.54,1.54,0,0,0,.13.76h-.71a1.64,1.64,0,0,1-.12-.76v-1c0-.72-.33-.94-.92-.94h-.49v2.69h-.71v-6.3Zm-.18,3c.56,0,.89-.18.89-.86v-.61c0-.56-.21-.86-.73-.86h-.68v2.33Z" transform="translate(-82 -38.159)" fill="#263238"/>
    <path id="Path_47" data-name="Path 47" d="M294.92,372.57v.63h-1.54v2.24h1.89v.64h-2.59v-6.3h2.59v.64h-1.89v2.15Z" transform="translate(-82 -38.159)" fill="#263238"/>
    <path id="Path_48" data-name="Path 48" d="M298.65,371.29v.17H298v-.2c0-.57-.21-.9-.72-.9s-.72.33-.72.89c0,1.41,2.12,1.54,2.12,3.32,0,.95-.46,1.57-1.43,1.57s-1.41-.62-1.41-1.57v-.36h.66v.39c0,.57.23.9.74.9s.73-.33.73-.9c0-1.4-2.1-1.54-2.1-3.31,0-1,.45-1.57,1.39-1.57S298.65,370.34,298.65,371.29Z" transform="translate(-82 -38.159)" fill="#263238"/>
    <path id="Path_49" data-name="Path 49" d="M302,371.29v.17h-.67v-.2c0-.57-.22-.9-.72-.9s-.72.33-.72.89c0,1.41,2.11,1.54,2.11,3.32,0,.95-.45,1.57-1.42,1.57s-1.41-.62-1.41-1.57v-.36h.66v.39c0,.57.23.9.73.9s.74-.33.74-.9c0-1.4-2.1-1.54-2.1-3.31,0-1,.45-1.57,1.39-1.57S302,370.34,302,371.29Z" transform="translate(-82 -38.159)" fill="#263238"/>
    <path id="Path_50" data-name="Path 50" d="M231.53,369.78c1,0,1.43.59,1.43,1.57v3.17c0,1-.45,1.56-1.43,1.56h-1.48v-6.3Zm0,5.66c.5,0,.75-.31.75-.89v-3.24c0-.58-.25-.89-.76-.89h-.76v5Z" transform="translate(-82 -38.159)" fill="#263238"/>
    <path id="Path_51" data-name="Path 51" d="M235.86,372.57v.63h-1.54v2.24h1.89v.64h-2.59v-6.3h2.59v.64h-1.89v2.15Z" transform="translate(-82 -38.159)" fill="#263238"/>
    <path id="Path_52" data-name="Path 52" d="M237.57,374.81l-.25,1.27h-.64l1.2-6.3h1l1.21,6.3h-.71l-.24-1.27Zm.09-.6h1.4l-.71-3.64Z" transform="translate(-82 -38.159)" fill="#263238"/>
    <path id="Path_53" data-name="Path 53" d="M242.13,369.78c1,0,1.43.59,1.43,1.57v3.17c0,1-.45,1.56-1.43,1.56h-1.48v-6.3Zm0,5.66c.51,0,.75-.31.75-.89v-3.24c0-.58-.24-.89-.76-.89h-.75v5Z" transform="translate(-82 -38.159)" fill="#263238"/>
    <path id="Path_54" data-name="Path 54" d="M244.22,376.08v-6.3h.7v5.66h1.8v.64Z" transform="translate(-82 -38.159)" fill="#263238"/>
    <path id="Path_55" data-name="Path 55" d="M248,369.78v6.3h-.7v-6.3Z" transform="translate(-82 -38.159)" fill="#263238"/>
    <path id="Path_56" data-name="Path 56" d="M249.29,376.08h-.63v-6.3h.89l1.46,4.55v-4.55h.62v6.3h-.72L249.29,371Z" transform="translate(-82 -38.159)" fill="#263238"/>
    <path id="Path_57" data-name="Path 57" d="M254.6,372.57v.63h-1.54v2.24H255v.64h-2.6v-6.3H255v.64h-1.89v2.15Z" transform="translate(-82 -38.159)" fill="#263238"/>
    <line id="Line_19" data-name="Line 19" x2="13.16" transform="translate(108.11 338.821)" fill="none" stroke="#263238" stroke-linecap="round" stroke-linejoin="round" stroke-width="1"/>
    <line id="Line_20" data-name="Line 20" x2="34.73" transform="translate(68.65 338.821)" fill="none" stroke="#263238" stroke-linecap="round" stroke-linejoin="round" stroke-width="1"/>
    <line id="Line_21" data-name="Line 21" x2="31.6" transform="translate(31.79 338.821)" fill="none" stroke="#263238" stroke-linecap="round" stroke-linejoin="round" stroke-width="1"/>
    <line id="Line_22" data-name="Line 22" x2="10.05" transform="translate(88.65 353.791)" fill="none" stroke="#263238" stroke-linecap="round" stroke-linejoin="round" stroke-width="1"/>
    <line id="Line_23" data-name="Line 23" x2="17.37" transform="translate(62.86 353.791)" fill="none" stroke="#263238" stroke-linecap="round" stroke-linejoin="round" stroke-width="1"/>
    <line id="Line_24" data-name="Line 24" x2="7.36" transform="translate(50.24 353.791)" fill="none" stroke="#263238" stroke-linecap="round" stroke-linejoin="round" stroke-width="1"/>
    <line id="Line_25" data-name="Line 25" x2="14.24" transform="translate(31.79 353.791)" fill="none" stroke="#263238" stroke-linecap="round" stroke-linejoin="round" stroke-width="1"/>
    <path id="Path_58" data-name="Path 58" d="M320.14,389.15a4.71,4.71,0,0,1-4.72,4.72H265.87a4.72,4.72,0,1,1,0-9.44h49.55a4.72,4.72,0,0,1,4.72,4.72Z" transform="translate(-82 -38.159)" fill="#fff" stroke="#263238" stroke-linecap="round" stroke-linejoin="round" stroke-width="1"/>
    <path id="Path_59" data-name="Path 59" d="M270.58,384.43v9.44h-4.71a4.72,4.72,0,1,1,0-9.44Z" transform="translate(-82 -38.159)" fill="#9d03c2" stroke="#263238" stroke-linecap="round" stroke-linejoin="round" stroke-width="1"/>
    <path id="Path_60" data-name="Path 60" d="M251.75,393.87H232.2a4.72,4.72,0,0,1-4.72-4.72h0a4.72,4.72,0,0,1,4.72-4.72h19.55a4.72,4.72,0,0,1,4.73,4.72h0a4.72,4.72,0,0,1-4.73,4.72Z" transform="translate(-82 -38.159)" fill="#fff" stroke="#263238" stroke-linecap="round" stroke-linejoin="round" stroke-width="1"/>
    <rect id="Rectangle_47" data-name="Rectangle 47" width="88.47" height="31.78" rx="4.72" transform="translate(260.67 160.601)" fill="#9d03c2" stroke="#263238" stroke-linecap="round" stroke-linejoin="round" stroke-width="1"/>
    <path id="Path_61" data-name="Path 61" d="M359.63,219.76l-.57,3h-1.52L360.36,208h2.38l2.82,14.73h-1.64l-.57-3Zm.21-1.41h3.28l-1.66-8.5Z" transform="translate(-82 -38.159)" fill="#fff"/>
    <path id="Path_62" data-name="Path 62" d="M370.29,208c2.3,0,3.35,1.39,3.35,3.66v7.43c0,2.25-1.05,3.64-3.35,3.64h-3.45V208Zm0,13.24c1.18,0,1.75-.74,1.75-2.09v-7.57c0-1.35-.57-2.08-1.77-2.08H368.5v11.74Z" transform="translate(-82 -38.159)" fill="#fff"/>
    <path id="Path_63" data-name="Path 63" d="M378.63,208c2.29,0,3.34,1.39,3.34,3.66v7.43c0,2.25-1.05,3.64-3.34,3.64h-3.45V208Zm0,13.24c1.17,0,1.74-.74,1.74-2.09v-7.57c0-1.35-.57-2.08-1.77-2.08h-1.76v11.74Z" transform="translate(-82 -38.159)" fill="#fff"/>
    <path id="Path_64" data-name="Path 64" d="M388.92,222.73V209.5H386.2V208h7.07v1.5h-2.71v13.23Z" transform="translate(-82 -38.159)" fill="#fff"/>
    <path id="Path_65" data-name="Path 65" d="M395.27,219.76l-.57,3h-1.51L396,208h2.38l2.82,14.73h-1.65l-.56-3Zm.21-1.41h3.28l-1.66-8.5Z" transform="translate(-82 -38.159)" fill="#fff"/>
    <path id="Path_66" data-name="Path 66" d="M408.87,211.54v.4h-1.56v-.49c0-1.32-.51-2.1-1.68-2.1s-1.69.78-1.69,2.08c0,3.31,4.95,3.62,4.95,7.77,0,2.23-1.08,3.68-3.33,3.68s-3.3-1.45-3.3-3.68v-.85h1.53v.93c0,1.33.55,2.1,1.73,2.1s1.73-.77,1.73-2.1c0-3.28-4.93-3.6-4.93-7.74,0-2.28,1.05-3.69,3.26-3.69S408.87,209.31,408.87,211.54Z" transform="translate(-82 -38.159)" fill="#fff"/>
    <path id="Path_67" data-name="Path 67" d="M412.82,216.34l-.86,1.45v4.94h-1.64V208H412v7.11l3.91-7.11h1.67l-3.73,6.71,3.85,8H416Z" transform="translate(-82 -38.159)" fill="#fff"/>
    <path id="Path_68" data-name="Path 68" d="M355.31,72.12s-11.62,5.12-17.67,6.74-12.55,4.19-14.18,9.3-8.89,24.77-9.36,29,7,11.73,7,11.73h96.72s1.8-24.47-2.16-32.84-16-15.52-19.46-16.91-12.52-5.86-16.2-6.55S359.5,70.49,355.31,72.12Z" transform="translate(-82 -38.159)" fill="#fff" stroke="#263238" stroke-linecap="round" stroke-linejoin="round" stroke-width="1"/>
    <path id="Path_69" data-name="Path 69" d="M323.25,106a12.5,12.5,0,0,1,11,2" transform="translate(-82 -38.159)" fill="#fff" stroke="#263238" stroke-linecap="round" stroke-linejoin="round" stroke-width="1"/>
    <path id="Path_70" data-name="Path 70" d="M331,108a9.75,9.75,0,0,1,6,2.5" transform="translate(-82 -38.159)" fill="#fff" stroke="#263238" stroke-linecap="round" stroke-linejoin="round" stroke-width="1"/>
    <path id="Path_71" data-name="Path 71" d="M340.88,96.84A8.52,8.52,0,0,1,342,102a33.26,33.26,0,0,1-2.45,10" transform="translate(-82 -38.159)" fill="none" stroke="#263238" stroke-linecap="round" stroke-linejoin="round" stroke-width="1"/>
    <path id="Path_72" data-name="Path 72" d="M337.5,93.45a9.8,9.8,0,0,1,2.43,2.07" transform="translate(-82 -38.159)" fill="none" stroke="#263238" stroke-linecap="round" stroke-linejoin="round" stroke-width="1"/>
    <path id="Path_73" data-name="Path 73" d="M343.43,96.55s1.87,5.63.82,10.18" transform="translate(-82 -38.159)" fill="none" stroke="#263238" stroke-linecap="round" stroke-linejoin="round" stroke-width="1"/>
    <path id="Path_74" data-name="Path 74" d="M393.67,100s-2.32,8.14-2.09,10.7" transform="translate(-82 -38.159)" fill="none" stroke="#263238" stroke-linecap="round" stroke-linejoin="round" stroke-width="1"/>
    <path id="Path_75" data-name="Path 75" d="M356.69,92.07l4.27,7.68,3.63,11.74,5.12-10.67,4.91-8.53-9.61-1.5Z" transform="translate(-82 -38.159)" fill="#9d03c2" stroke="#263238" stroke-linecap="round" stroke-linejoin="round" stroke-width="1"/>
    <line id="Line_26" data-name="Line 26" x2="8.75" y2="1.06" transform="translate(278.96 61.601)" fill="none" stroke="#263238" stroke-linecap="round" stroke-linejoin="round" stroke-width="1"/>
    <path id="Path_76" data-name="Path 76" d="M356.24,78.4a18.2,18.2,0,0,0-2.56,4.88c-.93,2.79-2.55,12.32-2.55,12.32s9.06-.46,11.39-.46,6,.23,6.74.23,11.16,6.28,11.16,6.28,1.86-10.7-.23-16.74S363.91,71.66,356.24,78.4Z" transform="translate(-82 -38.159)" fill="#fff" stroke="#263238" stroke-linecap="round" stroke-linejoin="round" stroke-width="1"/>
    <path id="Path_77" data-name="Path 77" d="M361.12,91.59l3.68,7.74,7.48-8.44S365.31,93,361.12,91.59Z" transform="translate(-82 -38.159)" fill="#fff" stroke="#263238" stroke-linecap="round" stroke-linejoin="round" stroke-width="1"/>
    <path id="Path_78" data-name="Path 78" d="M392.3,178.87l-3.59,6.63s-4.44.93-4.9,1.86a37.811,37.811,0,0,1-4,6c-1.16,1.16-3.48,2.79-1.39,3.72s5.81-3.25,5.81-3.25l2.09-1.17a13.811,13.811,0,0,1-.67,5.49c-1.37,3.93-2.95,8.71-2.75,9.21,1,2.5,2.65.74,2.65.74l3.12-7.29.55-.35s-.63,8.33-.63,8.36c-.12,1.53,1.23,3.32,2.41,1.75l2.79-8.83v7.94a1.91,1.91,0,0,0,2.31,1.92l.25-.1c.93-.46,1.25-10.16,1.25-10.16l1.94,7a1.35,1.35,0,0,0,1.76.95.6.6,0,0,0,.39-.37c.24-.69-.46-11.85-.46-11.85l-.47-11.63.7-3.95Z" transform="translate(-82 -38.159)" fill="#fff" stroke="#263238" stroke-linecap="round" stroke-linejoin="round" stroke-width="1"/>
    <path id="Path_79" data-name="Path 79" d="M396.7,101s-3.72,7.91-3.26,10.7,11.3,29.46,11.3,29.46l-13.47,38.81,10.7,2.56s18.27-27.16,20.21-33a29.35,29.35,0,0,0,1.39-10.23c0-1.4-4.32-33.18-6.88-38.76a37.39,37.39,0,0,0-5.81-9.07" transform="translate(-82 -38.159)" fill="#fff" stroke="#263238" stroke-linecap="round" stroke-linejoin="round" stroke-width="1"/>
    <path id="Path_80" data-name="Path 80" d="M406.37,140.18s4.18-5.82,6.74-9.54" transform="translate(-82 -38.159)" fill="none" stroke="#263238" stroke-linecap="round" stroke-linejoin="round" stroke-width="1"/>
    <line id="Line_27" data-name="Line 27" x1="5.11" y2="6.51" transform="translate(325.3 90.391)" fill="none" stroke="#263238" stroke-linecap="round" stroke-linejoin="round" stroke-width="1"/>
    <line id="Line_28" data-name="Line 28" x2="11.39" y2="2.79" transform="translate(310.2 138.041)" fill="#fff" stroke="#263238" stroke-linecap="round" stroke-linejoin="round" stroke-width="1"/>
    <path id="Path_81" data-name="Path 81" d="M317.73,110.51a16.86,16.86,0,0,0-2.87,3.23c-2.1,3-.93,9.53.46,11.62s7,3.49,7,3.49h45.14l.91-7.63h-1.65s-8.13-2.56-13.95-4.19-17.25-6.46-20.69-7.2a23.33,23.33,0,0,0-8-.31" transform="translate(-82 -38.159)" fill="#fff" stroke="#263238" stroke-linecap="round" stroke-linejoin="round" stroke-width="1"/>
    <path id="Path_82" data-name="Path 82" d="M375.06,128.85l-.23-.29s4.69-.43,5.33-.64a21.422,21.422,0,0,1,2.56-.43l6.78,1.36h6.73l-.7-1.16-6-3.72-5.19-2.59c-5.39-2.7-11.86.63-17.6-.2l1.09.14-.91,7.53Z" transform="translate(-82 -38.159)" fill="#fff" stroke="#263238" stroke-linecap="round" stroke-linejoin="round" stroke-width="1"/>
    <line id="Line_29" data-name="Line 29" x2="10.67" y2="4.7" transform="translate(302.43 85.491)" fill="#fff" stroke="#263238" stroke-linecap="round" stroke-linejoin="round" stroke-width="1"/>
    <line id="Line_30" data-name="Line 30" x1="0.28" y2="7.74" transform="translate(281.45 82.721)" fill="none" stroke="#263238" stroke-linecap="round" stroke-linejoin="round" stroke-width="1"/>
    <path id="Path_83" data-name="Path 83" d="M354.85,65.15a17.69,17.69,0,0,1-3.26-8.84c-.23-4.88,2.09-5.81,2.09-5.81s-3.48-5.58,4.19-8.84,19.3-5.11,25.81-1.62,8.83,11.62,8.6,17.2-3.49,12.09-3.49,12.09l-5.11,6.28s-3.26,1.16-4-.23S375.07,69.8,373,69.8s-7.44,0-10.23-1.17S354.85,65.15,354.85,65.15Z" transform="translate(-82 -38.159)" fill="#263238" stroke="#263238" stroke-linecap="round" stroke-linejoin="round" stroke-width="1"/>
    <path id="Path_84" data-name="Path 84" d="M354.38,58.17s-.23,14.18-.23,17.21,0,6,1.39,9.06,2.56,11.16,8.84,11.63,15.34-6,17-9.53S383.91,77,383.91,77s5.58-3.72,6.51-8.13-.93-6.51-2.09-4.42-2.79,7.44-3.49,7.9-1.63-2.79-1.63-2.79-3.49,1.4-3.95,0,1.86-8.13,1.86-8.13-7.67,2.09-9.3,2.09a24.27,24.27,0,0,1-5.12-1.16l6.75,4.18a14.91,14.91,0,0,1-9.3.7c-4.65-1.4-8.14-9.07-8.14-9.07Z" transform="translate(-82 -38.159)" fill="#fff" stroke="#263238" stroke-linecap="round" stroke-linejoin="round" stroke-width="1"/>
    <path id="Path_85" data-name="Path 85" d="M361.36,73.05v2.79s-3,7.91-2.56,9.3,4.65.7,5.58.23" transform="translate(-82 -38.159)" fill="#fff" stroke="#263238" stroke-linecap="round" stroke-linejoin="round" stroke-width="1"/>
    <path id="Path_86" data-name="Path 86" d="M360.89,87.47a9.44,9.44,0,0,0,9.07.23" transform="translate(-82 -38.159)" fill="#fff" stroke="#263238" stroke-linecap="round" stroke-linejoin="round" stroke-width="1"/>
    <path id="Path_87" data-name="Path 87" d="M367.63,77a9,9,0,0,0,8.14,1.17" transform="translate(-82 -38.159)" fill="#fff" stroke="#263238" stroke-linecap="round" stroke-linejoin="round" stroke-width="1"/>
    <path id="Path_88" data-name="Path 88" d="M367.87,72.82S373,71,376.24,74.45" transform="translate(-82 -38.159)" fill="#fff" stroke="#263238" stroke-linecap="round" stroke-linejoin="round" stroke-width="1"/>
    <path id="Path_89" data-name="Path 89" d="M356,73.28s.93,2.1,5.35,2.56" transform="translate(-82 -38.159)" fill="#fff" stroke="#263238" stroke-linecap="round" stroke-linejoin="round" stroke-width="1"/>
    <path id="Path_90" data-name="Path 90" d="M360.43,71s-1.63-2.79-4-1.86" transform="translate(-82 -38.159)" fill="#fff" stroke="#263238" stroke-linecap="round" stroke-linejoin="round" stroke-width="1"/>
    <path id="Path_91" data-name="Path 91" d="M364.59,111.49l-6.62,59.11,8.54,11.95,7.89-11.95Z" transform="translate(-82 -38.159)" fill="#9d03c2" stroke="#263238" stroke-linecap="round" stroke-linejoin="round" stroke-width="1"/>
  </g>
  <g id="freepik--Character--inject-93" transform="translate(24.134 166.141)">
    <path id="Path_92" data-name="Path 92" d="M108.09,255.48v9.73s99.58-4.07,220.42-6.09Z" transform="translate(-39.22 -198.76)" fill="#263238" stroke="#263238" stroke-linecap="round" stroke-linejoin="round" stroke-width="1"/>
    <rect id="Rectangle_48" data-name="Rectangle 48" width="225.91" height="60.36" transform="translate(63.38)" fill="#fff" stroke="#263238" stroke-linecap="round" stroke-linejoin="round" stroke-width="1"/>
    <path id="Path_93" data-name="Path 93" d="M276.68,214.32c1,0,1.41.58,1.41,1.54v.75c0,1-.47,1.52-1.46,1.52H276v2.49h-.7v-6.3Zm-.05,3.18c.52,0,.77-.24.77-.84v-.84c0-.57-.21-.86-.72-.86H276v2.54Z" transform="translate(-39.22 -198.76)" fill="#263238"/>
    <path id="Path_94" data-name="Path 94" d="M280,214.32c1,0,1.41.5,1.41,1.44v.51c0,.69-.24,1.13-.78,1.3.57.17.79.64.79,1.31v1a1.691,1.691,0,0,0,.12.76h-.71a1.69,1.69,0,0,1-.11-.77v-1c0-.71-.34-.93-.92-.93h-.5v2.69h-.7v-6.3Zm-.17,3c.55,0,.89-.18.89-.87v-.6c0-.57-.21-.86-.73-.86h-.69v2.33Z" transform="translate(-39.22 -198.76)" fill="#263238"/>
    <path id="Path_95" data-name="Path 95" d="M282.13,215.84c0-1,.48-1.59,1.44-1.59a1.392,1.392,0,0,1,1.45,1.59v3.26a1.45,1.45,0,1,1-2.89,0Zm.7,3.29c0,.58.24.91.74.91s.75-.33.75-.91V215.8c0-.56-.23-.91-.75-.91s-.74.35-.74.91Z" transform="translate(-39.22 -198.76)" fill="#263238"/>
    <path id="Path_96" data-name="Path 96" d="M288.47,215.84v.54h-.67v-.58c0-.56-.22-.91-.74-.91s-.73.35-.73.91v3.33c0,.57.23.91.73.91s.74-.34.74-.91v-1.26h-.65v-.63h1.32v1.86c0,1-.45,1.58-1.42,1.58s-1.42-.63-1.42-1.58v-3.26c0-1,.45-1.59,1.42-1.59S288.47,214.88,288.47,215.84Z" transform="translate(-39.22 -198.76)" fill="#263238"/>
    <path id="Path_97" data-name="Path 97" d="M290.54,214.32c1,0,1.4.5,1.4,1.44v.51c0,.69-.24,1.13-.78,1.3.58.17.79.64.79,1.31v1a1.57,1.57,0,0,0,.13.76h-.71a1.66,1.66,0,0,1-.12-.77v-1c0-.71-.33-.93-.92-.93h-.49v2.69h-.71v-6.3Zm-.18,3c.56,0,.89-.18.89-.87v-.6c0-.57-.21-.86-.73-.86h-.68v2.33Z" transform="translate(-39.22 -198.76)" fill="#263238"/>
    <path id="Path_98" data-name="Path 98" d="M294.92,217.11v.63h-1.54V220h1.89v.64h-2.59v-6.3h2.59V215h-1.89v2.15Z" transform="translate(-39.22 -198.76)" fill="#263238"/>
    <path id="Path_99" data-name="Path 99" d="M298.65,215.83V216H298v-.21c0-.56-.21-.9-.72-.9s-.72.34-.72.9c0,1.41,2.12,1.54,2.12,3.32,0,.95-.46,1.57-1.43,1.57s-1.41-.62-1.41-1.57v-.36h.66v.39c0,.57.23.9.74.9s.73-.33.73-.9c0-1.4-2.1-1.54-2.1-3.31,0-1,.45-1.58,1.39-1.58S298.65,214.88,298.65,215.83Z" transform="translate(-39.22 -198.76)" fill="#263238"/>
    <path id="Path_100" data-name="Path 100" d="M302,215.83V216h-.67v-.21c0-.56-.22-.9-.72-.9s-.72.34-.72.9c0,1.41,2.11,1.54,2.11,3.32,0,.95-.45,1.57-1.42,1.57s-1.41-.62-1.41-1.57v-.36h.66v.39c0,.57.23.9.73.9s.74-.33.74-.9c0-1.4-2.1-1.54-2.1-3.31,0-1,.45-1.58,1.39-1.58S302,214.88,302,215.83Z" transform="translate(-39.22 -198.76)" fill="#263238"/>
    <path id="Path_101" data-name="Path 101" d="M231.53,214.32c1,0,1.43.59,1.43,1.56v3.18c0,1-.45,1.56-1.43,1.56h-1.48v-6.3Zm0,5.66c.5,0,.75-.31.75-.89v-3.24c0-.58-.25-.89-.76-.89h-.76v5Z" transform="translate(-39.22 -198.76)" fill="#263238"/>
    <path id="Path_102" data-name="Path 102" d="M235.86,217.11v.63h-1.54V220h1.89v.64h-2.59v-6.3h2.59V215h-1.89v2.15Z" transform="translate(-39.22 -198.76)" fill="#263238"/>
    <path id="Path_103" data-name="Path 103" d="M237.57,219.35l-.25,1.27h-.64l1.2-6.3h1l1.21,6.3h-.71l-.24-1.27Zm.09-.6h1.4l-.71-3.64Z" transform="translate(-39.22 -198.76)" fill="#263238"/>
    <path id="Path_104" data-name="Path 104" d="M242.13,214.32c1,0,1.43.59,1.43,1.56v3.18c0,1-.45,1.56-1.43,1.56h-1.48v-6.3Zm0,5.66c.51,0,.75-.31.75-.89v-3.24c0-.58-.24-.89-.76-.89h-.75v5Z" transform="translate(-39.22 -198.76)" fill="#263238"/>
    <path id="Path_105" data-name="Path 105" d="M244.22,220.62v-6.3h.7V220h1.8v.64Z" transform="translate(-39.22 -198.76)" fill="#263238"/>
    <path id="Path_106" data-name="Path 106" d="M248,214.32v6.3h-.7v-6.3Z" transform="translate(-39.22 -198.76)" fill="#263238"/>
    <path id="Path_107" data-name="Path 107" d="M249.29,220.62h-.63v-6.3h.89l1.46,4.55v-4.55h.62v6.3h-.72l-1.62-5.1Z" transform="translate(-39.22 -198.76)" fill="#263238"/>
    <path id="Path_108" data-name="Path 108" d="M254.6,217.11v.63h-1.54V220H255v.64h-2.6v-6.3H255V215h-1.89v2.15Z" transform="translate(-39.22 -198.76)" fill="#263238"/>
    <line id="Line_31" data-name="Line 31" x2="13.16" transform="translate(150.89 22.76)" fill="none" stroke="#263238" stroke-linecap="round" stroke-linejoin="round" stroke-width="1"/>
    <line id="Line_32" data-name="Line 32" x2="34.73" transform="translate(111.43 22.76)" fill="none" stroke="#263238" stroke-linecap="round" stroke-linejoin="round" stroke-width="1"/>
    <line id="Line_33" data-name="Line 33" x2="31.6" transform="translate(74.57 22.76)" fill="none" stroke="#263238" stroke-linecap="round" stroke-linejoin="round" stroke-width="1"/>
    <line id="Line_34" data-name="Line 34" x2="10.05" transform="translate(131.43 37.73)" fill="none" stroke="#263238" stroke-linecap="round" stroke-linejoin="round" stroke-width="1"/>
    <line id="Line_35" data-name="Line 35" x2="17.37" transform="translate(105.64 37.73)" fill="none" stroke="#263238" stroke-linecap="round" stroke-linejoin="round" stroke-width="1"/>
    <line id="Line_36" data-name="Line 36" x2="7.36" transform="translate(93.02 37.73)" fill="none" stroke="#263238" stroke-linecap="round" stroke-linejoin="round" stroke-width="1"/>
    <line id="Line_37" data-name="Line 37" x2="14.24" transform="translate(74.57 37.73)" fill="none" stroke="#263238" stroke-linecap="round" stroke-linejoin="round" stroke-width="1"/>
    <path id="Path_109" data-name="Path 109" d="M320.14,233.69a4.71,4.71,0,0,1-4.72,4.72H265.87a4.725,4.725,0,1,1,0-9.45h49.55a4.72,4.72,0,0,1,4.72,4.73Z" transform="translate(-39.22 -198.76)" fill="#fff" stroke="#263238" stroke-linecap="round" stroke-linejoin="round" stroke-width="1"/>
    <path id="Path_110" data-name="Path 110" d="M251.75,238.41H232.2a4.72,4.72,0,0,1-4.72-4.72h0A4.72,4.72,0,0,1,232.2,229h19.55a4.73,4.73,0,0,1,4.73,4.73h0a4.72,4.72,0,0,1-4.73,4.68Z" transform="translate(-39.22 -198.76)" fill="#fff" stroke="#263238" stroke-linecap="round" stroke-linejoin="round" stroke-width="1"/>
    <path id="Path_111" data-name="Path 111" d="M122.52,269s3.34-8.69,4-9.58,1.78-3.12,3.79-3.12,5.57.22,7.13-.45,3.56-.67,3.12.67-3.12,1.78-3.12,1.78l11.58.9s-3.34,3.11-4.9,3.78a34.427,34.427,0,0,1-4.9,1.34,19.38,19.38,0,0,1-4.46,2.23,36.052,36.052,0,0,1-4.45.67l-2.45,4.45Z" transform="translate(-39.22 -198.76)" fill="#fff" stroke="#263238" stroke-linecap="round" stroke-linejoin="round" stroke-width="1"/>
    <line id="Line_38" data-name="Line 38" x1="5.13" y2="1.34" transform="translate(93.1 59.53)" fill="none" stroke="#263238" stroke-linecap="round" stroke-linejoin="round" stroke-width="1"/>
    <path id="Path_112" data-name="Path 112" d="M94.89,230.44l-3.79,6.47,2.23,5.12,6.24-4.68,3.12-2.23V221.75Z" transform="translate(-39.22 -198.76)" fill="#fff" stroke="#263238" stroke-linecap="round" stroke-linejoin="round" stroke-width="1"/>
    <path id="Path_113" data-name="Path 113" d="M94,234s1.78-9.14,2.67-10.25,4.46-3.79,5.57-4,2.68.44,1.79,1.78a19.41,19.41,0,0,1-3.79,3.34s1.56,4.46.44,6.91a8,8,0,0,1-3.56,3.57" transform="translate(-39.22 -198.76)" fill="#fff" stroke="#263238" stroke-linecap="round" stroke-linejoin="round" stroke-width="1"/>
    <path id="Path_114" data-name="Path 114" d="M91.33,235.12l3.78,9.58L75.73,259.41,71.5,244.26Z" transform="translate(-39.22 -198.76)" fill="#9d03c2" stroke="#263238" stroke-linecap="round" stroke-linejoin="round" stroke-width="1"/>
    <path id="Path_115" data-name="Path 115" d="M82.5,395.83l.75,9.5s-5,10.5-4.5,19.75,1.5,36,1.5,37.5-2.5,3.25-.75,9.5c.49,1.74,4.75.5,9,3.25s9.5,4.5,12.75,4.5,5,0,5-1.5-4.75-3.5-6.75-5.5a117.915,117.915,0,0,1-8.75-11.25c-.5-1,1.75-15.75,3.25-21.5s5.75-19.5,7.5-29.25,2.5-17.75,2.5-17.75Z" transform="translate(-39.22 -198.76)" fill="#fff" stroke="#263238" stroke-linecap="round" stroke-linejoin="round" stroke-width="1"/>
    <path id="Path_116" data-name="Path 116" d="M79.5,472.08l.5,6.75h3.5l1.5-5.5S80.75,471.83,79.5,472.08Z" transform="translate(-39.22 -198.76)" fill="#263238" stroke="#263238" stroke-linecap="round" stroke-linejoin="round" stroke-width="1"/>
    <path id="Path_117" data-name="Path 117" d="M101.25,479.83c3.23-.32,5,0,5-1.5s-4.75-3.5-6.75-5.5a121.084,121.084,0,0,1-7.67-9.65,6.71,6.71,0,0,1-3.58,1.4c-3.75.25-8-2-8-2,0,1.5-2.5,3.25-.75,9.5.49,1.74,4.89,1.43,8.32,5.55C91.06,481.52,100.76,479.88,101.25,479.83Z" transform="translate(-39.22 -198.76)" fill="#263238" stroke="#263238" stroke-linecap="round" stroke-linejoin="round" stroke-width="1"/>
    <path id="Path_118" data-name="Path 118" d="M53.25,388.58l.5,14s-6.5,8.75-7.75,17.25-5.5,41.75-5.5,45-2,13.75-1,14.5,12.5,0,12.5,0a8.65,8.65,0,0,0,.5-3.5c0-2.5-2-10.75-1.5-12.75s2.25-8.25,2.25-8.25,7.75-20.25,11-26.5,6-15.25,7.75-20.75,3.25-13.25,3.25-13.25Z" transform="translate(-39.22 -198.76)" fill="#fff" stroke="#263238" stroke-linecap="round" stroke-linejoin="round" stroke-width="1"/>
    <path id="Path_119" data-name="Path 119" d="M50.94,463.46c-3.47-4.88-9.13-1.9-10.24-1.25-.13,1.29-.2,2.21-.2,2.62,0,3.25-2,13.75-1,14.5s12.5,0,12.5,0a8.65,8.65,0,0,0,.5-3.5C52.5,473.47,50.71,466,50.94,463.46Z" transform="translate(-39.22 -198.76)" fill="#263238" stroke="#263238" stroke-linecap="round" stroke-linejoin="round" stroke-width="1"/>
    <path id="Path_120" data-name="Path 120" d="M52,479.33c-.5-1.5-4-7.5-4-7.5l-6.5.25c-2.25,2.5-2,7.25-2,7.25C40.5,480.08,52,479.33,52,479.33Z" transform="translate(-39.22 -198.76)" fill="#8c8c8c" stroke="#263238" stroke-linecap="round" stroke-linejoin="round" stroke-width="1"/>
    <path id="Path_121" data-name="Path 121" d="M48,471.83s-2.25-2-4-1.25a8.5,8.5,0,0,0-2.5,1.5l.25,7.5h4.5Z" transform="translate(-39.22 -198.76)" fill="#263238" stroke="#263238" stroke-linecap="round" stroke-linejoin="round" stroke-width="1"/>
    <path id="Path_122" data-name="Path 122" d="M47.75,338.83a38.19,38.19,0,0,0-2.25,11.5c-.25,6.5,1.5,38.5,1.5,38.5s12.5,8.5,33.5,9.25,30.75-5,30.75-5-.5-38.5-3-47.75-7-13-7-13-10,3-25.25,2.75a119.666,119.666,0,0,1-25.75-3Z" transform="translate(-39.22 -198.76)" fill="#263238" stroke="#263238" stroke-linecap="round" stroke-linejoin="round" stroke-width="1"/>
    <path id="Path_123" data-name="Path 123" d="M54.34,261.86s-6.24,11.58-7.13,20.05,7.35,34.31,7.35,35.2-8.68,23.17-8.68,23.17A125.162,125.162,0,0,0,67,347.19c11.14,2.45,22.5.89,24.73.22l2.9-8.68,1.11,7.35s0,.22,3.57-.67,8-4.68,8-4.68-5.79-13.59-8.69-17.38-6.46-12.47-6.46-12.47l1.33-11.14s10,8.24,10.92,8.46,14.71-16,17.6-20.72,7.58-16.71,7.58-16.71L123,267.43l-2.67,2.67-15.82,17.16s-9.58-10.92-14.26-12.7-13.59-4.46-13.59-4.46l-18.05-4.23,1.34-3.79S59,259.41,54.34,261.86Z" transform="translate(-39.22 -198.76)" fill="#9d03c2" stroke="#263238" stroke-linecap="round" stroke-linejoin="round" stroke-width="1"/>
    <path id="Path_124" data-name="Path 124" d="M93.56,299.74,83.5,293.83l9.16,11.07Z" transform="translate(-39.22 -198.76)" fill="#263238" stroke="#263238" stroke-linecap="round" stroke-linejoin="round" stroke-width="1"/>
    <path id="Path_125" data-name="Path 125" d="M72.43,313.53a25.931,25.931,0,0,0,3.07,3.05" transform="translate(-39.22 -198.76)" fill="none" stroke="#263238" stroke-linecap="round" stroke-linejoin="round" stroke-width="1"/>
    <path id="Path_126" data-name="Path 126" d="M60.17,291.76s4.3,11.08,10.22,19.18" transform="translate(-39.22 -198.76)" fill="none" stroke="#263238" stroke-linecap="round" stroke-linejoin="round" stroke-width="1"/>
    <path id="Path_127" data-name="Path 127" d="M64.92,308.55a65.45,65.45,0,0,0,8.39,10.95" transform="translate(-39.22 -198.76)" fill="none" stroke="#263238" stroke-linecap="round" stroke-linejoin="round" stroke-width="1"/>
    <path id="Path_128" data-name="Path 128" d="M83.31,226.88a25,25,0,0,1,2,5.57c.89,3.56,4,5.35,5.13,5.12s1.11,2.45.44,3.79a10.84,10.84,0,0,1-1.78,2.45,91.861,91.861,0,0,1-.89,9.36c-.67,4-.89,7.13-2.45,7.13h-8s-.67,3.56-.9,6.46-.22,3.34-.22,3.34l-18.05-4.23,2-6.24s-11.36-5.12-5.79-14.48S73.5,224,83.31,226.88Z" transform="translate(-39.22 -198.76)" fill="#fff" stroke="#263238" stroke-linecap="round" stroke-linejoin="round" stroke-width="1"/>
    <path id="Path_129" data-name="Path 129" d="M77.74,260.3l-3.7-.3,2.92,5.11Z" transform="translate(-39.22 -198.76)" fill="#263238" stroke="#263238" stroke-linecap="round" stroke-linejoin="round" stroke-width="1"/>
    <path id="Path_130" data-name="Path 130" d="M88.65,248.71a4.62,4.62,0,0,1-4.45.23" transform="translate(-39.22 -198.76)" fill="none" stroke="#263238" stroke-linecap="round" stroke-linejoin="round" stroke-width="1"/>
    <path id="Path_131" data-name="Path 131" d="M81.75,234.9s.44-4.23,2.67-4" transform="translate(-39.22 -198.76)" fill="none" stroke="#263238" stroke-linecap="round" stroke-linejoin="round" stroke-width="1"/>
    <path id="Path_132" data-name="Path 132" d="M85.27,236.67c.38,1.17.35,2.22-.06,2.36s-1-.72-1.42-1.89-.35-2.22.06-2.36S84.9,235.49,85.27,236.67Z" transform="translate(-39.22 -198.76)" fill="#263238"/>
    <path id="Path_133" data-name="Path 133" d="M83.31,220.19l.08.1c2.36,3.07,2,6.49.14,9.71-3.71,6.55-15,12.64-15,18.05s5.7,5.13,5.7,5.13,2.28,4.85-3.42,9.12S53.41,267.71,46,260a18.79,18.79,0,0,1-4.33-7.72c-2.25-7.5-2.57-15.84.74-22.64,2.78-5.7,6-10.32,11.79-13.19,4.56-2.24,11.76-2.8,16.85-2.5a18.61,18.61,0,0,1,7.18,1.74A17,17,0,0,1,83.31,220.19Z" transform="translate(-39.22 -198.76)" fill="#263238" stroke="#263238" stroke-linecap="round" stroke-linejoin="round" stroke-width="1"/>
    <path id="Path_134" data-name="Path 134" d="M67.73,257.78a15,15,0,0,0,3.21-.9" transform="translate(-39.22 -198.76)" fill="none" stroke="#757575" stroke-linecap="round" stroke-linejoin="round" stroke-width="1"/>
    <path id="Path_135" data-name="Path 135" d="M77.46,232.78a23,23,0,0,1-5.73,5.78c-7.86,5.5-16.5,11.26-12.57,16.49A7.43,7.43,0,0,0,64.93,258" transform="translate(-39.22 -198.76)" fill="none" stroke="#757575" stroke-linecap="round" stroke-linejoin="round" stroke-width="1"/>
    <path id="Path_136" data-name="Path 136" d="M80.89,224.94a19.09,19.09,0,0,1-1.51,4.48" transform="translate(-39.22 -198.76)" fill="none" stroke="#757575" stroke-linecap="round" stroke-linejoin="round" stroke-width="1"/>
    <path id="Path_137" data-name="Path 137" d="M62.15,240.35c-1.28,1.77-2.89,3.85-4.82,6.06-5.5,6.29-4.72,19.11,7.59,18.07" transform="translate(-39.22 -198.76)" fill="none" stroke="#757575" stroke-linecap="round" stroke-linejoin="round" stroke-width="1"/>
    <path id="Path_138" data-name="Path 138" d="M65.7,234.89s-.58,1.11-1.7,2.79" transform="translate(-39.22 -198.76)" fill="none" stroke="#757575" stroke-linecap="round" stroke-linejoin="round" stroke-width="1"/>
  </g>
  <g id="freepik--Plant--inject-93" transform="translate(366.857 297.516)">
    <path id="Path_139" data-name="Path 139" d="M387.53,359.46c2.62,1.14,9,1,9,1s-1.38-4.2-1.5-4.45c-1.41-2.94-5.85-7.79-9.46-7.3a4.31,4.31,0,0,0-3.47,5.41C382.73,356.62,385.3,358.48,387.53,359.46Z" transform="translate(-381.943 -330.135)" fill="#263238"/>
    <path id="Path_140" data-name="Path 140" d="M471.42,337.66c-3.63-.39-7.94,4.58-9.26,7.56-.12.25-1.45,4.48-1.38,4.48h.08c-.69.78-1.42,1.62-2.19,2.56-1.42,1.74-3,3.73-4.59,6a76.364,76.364,0,0,0-4.76,7.58,55.772,55.772,0,0,0-4.06,9.15s0,.08,0,.11c0-1.07,0-4.06-.05-4.28-.42-3.23-3.13-9.23-6.72-9.9a4.33,4.33,0,0,0-5,4.07c-.21,2.56,1.65,5.13,3.47,6.75,2,1.83,7.73,3.6,8.18,3.74a74.661,74.661,0,0,0-2.4,9.91c-.35,1.95-.64,3.93-.91,5.92v-1.87c-.42-3.23-3.13-9.23-6.72-9.89a4.32,4.32,0,0,0-5,4.06c-.21,2.57,1.65,5.14,3.47,6.76s6.65,3.25,7.93,3.66c-.09.76-.2,1.52-.29,2.28-.43,3.67-.85,7.32-1.38,10.89-.18,1.26-.41,2.5-.63,3.73v-1.62c-.42-3.23-3.13-9.22-6.72-9.89a4.33,4.33,0,0,0-5,4.06c-.21,2.57,1.65,5.14,3.47,6.76s6.18,3.09,7.7,3.59c-.26,1.25-.53,2.51-.84,3.72-.24.82-.41,1.62-.69,2.43s-.51,1.61-.77,2.4c-.55,1.51-1.1,3.07-1.67,4.52-.39,1-.79,2-1.18,3,.2-1.25.54-3.71.54-3.92a16.75,16.75,0,0,0-2.25-8.15,5.159,5.159,0,0,0-.06-1,4.31,4.31,0,0,0-5.28-3.66c-3.52.94-5.76,7.13-5.92,10.38,0,.19.11,2.28.21,3.6-.18-.76-.34-1.51-.53-2.3-.37-1.56-.79-3.1-1.23-4.76l-.73-2.42c-.22-.81-.56-1.63-.85-2.46-.7-1.91-1.49-3.81-2.34-5.7,1.36-.33,6.19-1.56,8.13-3.05s4-3.9,4-6.48a4.32,4.32,0,0,0-4.66-4.42c-3.63.39-6.78,6.17-7.44,9.36,0,.2-.25,2.54-.34,3.83-.52-1.13-1-2.27-1.6-3.4-1.62-3.26-3.36-6.52-5.08-9.77l-1.57-3c.49-.12,6.26-1.45,8.43-3.12,1.93-1.48,4-3.91,4-6.48a4.31,4.31,0,0,0-4.66-4.42c-3.63.39-6.77,6.17-7.43,9.36,0,.24-.36,3.61-.39,4.47-1.14-2.2-2.26-4.4-3.28-6.61a76.7,76.7,0,0,1-3.56-9.2c.23-.05,6.26-1.42,8.48-3.13,1.94-1.48,4-3.9,4-6.48a4.32,4.32,0,0,0-4.66-4.42c-3.63.39-6.77,6.17-7.43,9.36-.05.25-.38,3.88-.39,4.54-.06-.18-.14-.36-.19-.54a56.61,56.61,0,0,1-1.85-9.72c-.2-1.81-.29-3.55-.34-5.25,1.14-.14,6.39-.84,8.56-2.15s4.39-3.45,4.65-6a4.31,4.31,0,0,0-4.15-4.9c-3.65,0-7.41,5.39-8.42,8.49-.05.16-.42,1.94-.66,3.24v-2.3c0-2.76.18-5.28.35-7.52.11-1.27.23-2.42.36-3.49,1.06-.72,5.28-3.7,6.57-5.83s2.31-5.08,1.36-7.47a4.32,4.32,0,0,0-5.94-2.45c-3.24,1.68-4.1,8.2-3.56,11.42.05.28,1.27,4.54,1.33,4.5h.06c-.14,1-.28,2.13-.41,3.34-.23,2.24-.46,4.76-.52,7.53a78.436,78.436,0,0,0,.21,8.95,56.54,56.54,0,0,0,1.66,9.87v.12c-.58-.9-2.27-3.37-2.42-3.55-2.13-2.46-7.7-6-11-4.54a4.32,4.32,0,0,0-1.92,6.13c1.24,2.26,4.21,3.38,6.62,3.73,2.72.39,8.43-1.27,8.89-1.4a75.68,75.68,0,0,0,3.46,9.59c.79,1.82,1.64,3.63,2.51,5.43-.52-.76-1-1.44-1.07-1.53-2.13-2.46-7.7-6-11.06-4.54a4.32,4.32,0,0,0-1.91,6.13c1.24,2.26,4.21,3.38,6.62,3.73s7.34-1,8.64-1.33c.34.69.67,1.38,1,2.07,1.65,3.29,3.32,6.57,4.85,9.84.55,1.15,1,2.31,1.53,3.46-.46-.68-.86-1.24-.93-1.32-2.13-2.47-7.7-6-11.05-4.55a4.32,4.32,0,0,0-1.92,6.13c1.24,2.26,4.21,3.38,6.62,3.73s6.87-.84,8.4-1.26c.48,1.19,1,2.39,1.35,3.57.26.81.57,1.58.78,2.41s.45,1.62.68,2.42c.37,1.56.77,3.17,1.09,4.7.24,1.06.44,2.08.65,3.1-.53-1.15-1.6-3.39-1.71-3.56-1.74-2.76-6.71-7.07-10.24-6.17a4.31,4.31,0,0,0-2.82,5.77c.88,2.42,3.65,4,6,4.69,2.57.78,8.24.06,9,0,.34,1.7.65,3.35.92,4.91.42,2.35.76,4.53,1.05,6.51h-3.6V480h15.7V440.5h-2.08c.62-1.42,1.26-2.93,1.93-4.55s1.35-3.37,2-5.17c.68.14,6.3,1.28,8.92.69,2.37-.54,5.25-1.88,6.31-4.23a4.31,4.31,0,0,0-2.39-6c-3.45-1.16-8.73,2.76-10.67,5.38-.11.16-1.16,2-1.81,3.13.28-.73.55-1.45.83-2.21.55-1.51,1.06-3,1.61-4.65l.72-2.42c.26-.8.43-1.68.65-2.53.47-2,.85-4,1.19-6,1.32.48,6,2.12,8.46,1.94s5.48-1.06,6.88-3.22a4.31,4.31,0,0,0-1.45-6.26c-3.24-1.67-9.06,1.41-11.36,3.71-.15.15-1.62,2-2.41,3,.19-1.23.39-2.46.55-3.71.45-3.62.79-7.29,1.15-11,.11-1.12.23-2.24.35-3.36.46.18,6,2.25,8.75,2.05,2.42-.17,5.47-1.06,6.87-3.22a4.31,4.31,0,0,0-1.45-6.26c-3.24-1.67-9.05,1.41-11.36,3.71-.17.18-2.29,2.82-2.79,3.52.26-2.47.54-4.92.92-7.33a75,75,0,0,1,2.1-9.63c.22.08,6,2.26,8.8,2.07,2.43-.17,5.47-1.07,6.88-3.22a4.33,4.33,0,0,0-1.45-6.26c-3.25-1.68-9.06,1.41-11.37,3.71-.18.18-2.45,3-2.83,3.57.06-.19.09-.38.15-.56a54.837,54.837,0,0,1,3.82-9.12c.83-1.62,1.71-3.13,2.6-4.58,1,.52,5.8,2.83,8.34,2.94S466.34,364,468,362a4.31,4.31,0,0,0-.75-6.38c-3-2-9.16.41-11.7,2.44-.14.11-1.43,1.39-2.35,2.33.42-.65.83-1.32,1.24-1.93,1.52-2.3,3.06-4.31,4.44-6.08.79-1,1.53-1.89,2.22-2.71,1.29,0,6.45-.18,8.71-1.24s4.72-3,5.25-5.49a4.32,4.32,0,0,0-3.64-5.28Zm-40.17,97.46c-.84,1.95-1.66,3.74-2.43,5.39h-5.48c-.34-2.09-.75-4.4-1.25-6.91-.34-1.72-.74-3.55-1.16-5.43a47.242,47.242,0,0,0,5-2.35c1.87,2,6.65,4.39,7.27,4.69C432.54,432.11,431.89,433.66,431.25,435.12Z" transform="translate(-381.943 -330.135)" fill="#263238"/>
    <path id="Path_141" data-name="Path 141" d="M452.3,360.87c.06,0,1.17-4.26,1.21-4.54.45-3.23-.58-9.73-3.87-11.31a4.31,4.31,0,0,0-5.87,2.6c-.88,2.42.23,5.39,1.56,7.43C446.88,357.45,452.3,360.86,452.3,360.87Z" transform="translate(-381.943 -330.135)" fill="#263238"/>
  </g>
  <g id="freepik--Floor--inject-93" transform="translate(6.274 447.101)">
    <line id="Line_39" data-name="Line 39" x2="12.68" transform="translate(452.32)" fill="none" stroke="#263238" stroke-linecap="round" stroke-linejoin="round" stroke-width="1"/>
    <line id="Line_40" data-name="Line 40" x2="5" transform="translate(441.49)" fill="none" stroke="#263238" stroke-linecap="round" stroke-linejoin="round" stroke-width="1"/>
    <line id="Line_41" data-name="Line 41" x2="437.88" fill="none" stroke="#263238" stroke-linecap="round" stroke-linejoin="round" stroke-width="1"/>
  </g>
</svg>
